<svg width="172" height="159" viewBox="0 0 172 159" fill="none" xmlns="http://www.w3.org/2000/svg">
<path d="M24.0291 22.0577L19.7352 17.7637C15.4413 23.5907 12.681 30.6457 12.3742 38.0067H9.30715C4.09314 38.0067 0.105957 41.9937 0.105957 47.2077L0.105957 145.353C0.105957 150.568 4.09314 154.555 9.30715 154.555H126.162V148.421H9.30715C7.46691 148.421 6.24008 147.194 6.24008 145.353L6.24008 47.2077C6.24008 45.3677 7.46691 44.1407 9.30715 44.1407H12.3742C12.9877 51.5017 15.4413 58.5557 19.7352 64.3831L24.0291 60.0892C20.3486 54.5685 18.2016 48.1277 18.2016 41.0737C18.2016 34.0187 20.3486 27.2717 24.0291 22.0577Z" fill="#1664CF"/>
<path d="M162.353 44.1407C164.193 44.1407 165.42 45.3677 165.42 47.2077V145.353C165.42 147.194 164.193 148.421 162.353 148.421H157.139V154.555H162.353C167.567 154.555 171.554 150.568 171.554 145.353V47.2077C171.554 41.9937 167.567 38.0067 162.353 38.0067H157.139V44.1407H162.353Z" fill="#1664CF"/>
<path d="M94.8774 38.0066V44.1406H125.548V38.0066H94.8774Z" fill="#1664CF"/>
<path d="M50.4048 74.5046V80.6387H51.9383C60.2194 80.6387 68.5005 77.8783 75.248 72.971L70.9541 68.6772C65.4334 72.3576 58.9926 74.5046 51.9383 74.5046C51.3249 74.8113 50.7115 74.5046 50.4048 74.5046Z" fill="#1664CF"/>
<path d="M44.2724 1.81538C36.2981 3.34938 29.2438 7.33639 23.7231 12.8574L28.017 17.1504C34.1511 11.0164 42.7389 7.02939 51.9401 7.02939C58.9943 7.02939 65.4352 9.17639 70.9559 12.8574L75.2498 8.56339C68.5022 3.65539 60.2212 0.895386 51.9401 0.895386H50.4066C48.2596 1.20239 46.1127 1.50838 44.2724 1.81538Z" fill="#1664CF"/>
<path d="M28.017 64.6901L23.7231 68.984C29.2438 74.8114 36.6048 78.4919 44.2724 80.0254V73.5846C37.8316 72.3577 32.3109 68.984 28.017 64.6901Z" fill="#1664CF"/>
<path d="M85.6765 41.0744C85.6765 50.5814 81.996 58.863 75.5552 64.9971L79.8491 69.291C86.5966 62.5435 90.8905 53.6494 91.8106 44.1414V38.0074C91.1972 28.4994 86.9033 19.6044 80.1558 12.8574L75.8619 17.1514C81.6893 22.9784 85.6765 31.5664 85.6765 41.0744Z" fill="#1664CF"/>

<rect x="19" y="8" width="65" height="65" fill="#D9D9D9" fillOpacity="0.4"/>
<rect x="126" y="33" width="31" height="16" fill="#C74040" fillOpacity="0.4"/>
<rect x="92" y="52" width="72" height="22" fill="#6FBF53" fillOpacity="0.4"/>
<rect x="8" y="75" width="156" height="74" fill="#EA0CC6" fillOpacity="0.4"/>
<rect x="126" y="143" width="31" height="16" fill="#0DF9EB" fillOpacity="0.4"/>
</svg>
