<svg width="364" height="364" viewBox="0 0 364 364" fill="none" xmlns="http://www.w3.org/2000/svg">
<path d="M126.848 87.5254H237.151C245.865 87.5254 253.035 80.4109 253.035 71.6418V49.6363C253.035 40.8672 245.921 33.7527 237.151 33.7527H214.043C211.727 18.1448 198.215 6.17694 182 6.17694C165.785 6.17694 152.273 18.1448 149.957 33.7527H144.387C141.739 33.7527 139.533 35.9588 139.533 38.606C139.533 41.2533 141.684 43.4594 144.387 43.4594H154.424C157.072 43.4594 159.278 41.3085 159.278 38.606C159.278 26.0866 169.481 15.8285 182.055 15.8285C194.63 15.8285 204.778 26.0866 204.778 38.606C204.778 41.2533 206.928 43.4594 209.631 43.4594H237.207C240.626 43.4594 243.439 46.2169 243.439 49.6915V71.7521C243.439 75.1715 240.681 77.9842 237.207 77.9842H126.848C123.429 77.9842 120.616 75.2266 120.616 71.7521V49.6363C120.616 46.2169 123.374 43.4042 126.848 43.4042H132.364C135.011 43.4042 137.217 41.2533 137.217 38.5509C137.217 35.8485 135.011 33.7527 132.364 33.7527H126.848C118.135 33.7527 110.965 40.8672 110.965 49.6363V71.6969C111.02 80.466 118.135 87.5254 126.848 87.5254Z" fill="url(#paint0_linear_695_3033)"/>
<path d="M270.242 55.8134H264.727C262.08 55.8134 259.874 57.9643 259.874 60.6667C259.874 63.3691 262.025 65.52 264.727 65.52H270.242C279.728 65.52 287.505 73.2412 287.505 82.7824V111.461C287.505 114.109 289.656 116.315 292.358 116.315C295.061 116.315 297.211 114.164 297.211 111.461V82.7273C297.156 67.8915 285.078 55.8134 270.242 55.8134Z" fill="url(#paint1_linear_695_3033)"/>
<path d="M292.303 121.995C289.656 121.995 287.45 124.146 287.45 126.848V330.909C287.45 340.395 279.728 348.172 270.187 348.172H93.7576C84.2715 348.172 76.4951 340.45 76.4951 330.909V82.7273C76.4951 73.2412 84.2164 65.4648 93.7576 65.4648H99.2727C101.92 65.4648 104.126 63.3139 104.126 60.6115C104.126 57.9091 101.975 55.7582 99.2727 55.7582H93.7576C78.9218 55.7582 66.8436 67.8364 66.8436 82.6721V330.854C66.8436 345.69 78.9218 357.768 93.7576 357.768H270.242C285.078 357.768 297.156 345.69 297.156 330.854V126.848C297.156 124.201 294.95 121.995 292.303 121.995Z" fill="url(#paint2_linear_695_3033)"/>
<path d="M182 38.606C185.046 38.606 187.515 36.1368 187.515 33.0909C187.515 30.045 185.046 27.5757 182 27.5757C178.954 27.5757 176.485 30.045 176.485 33.0909C176.485 36.1368 178.954 38.606 182 38.606Z" fill="url(#paint3_linear_695_3033)"/>
<defs>
<linearGradient id="paint0_linear_695_3033" x1="182" y1="12.0065" x2="182" y2="355.154" gradientUnits="userSpaceOnUse">
<stop stop-color="#FFC205"/>
<stop offset="1" stop-color="#FC0299"/>
</linearGradient>
<linearGradient id="paint1_linear_695_3033" x1="278.515" y1="12.0065" x2="278.515" y2="355.154" gradientUnits="userSpaceOnUse">
<stop stop-color="#FFC205"/>
<stop offset="1" stop-color="#FC0299"/>
</linearGradient>
<linearGradient id="paint2_linear_695_3033" x1="182" y1="12.0065" x2="182" y2="355.154" gradientUnits="userSpaceOnUse">
<stop stop-color="#FFC205"/>
<stop offset="1" stop-color="#FC0299"/>
</linearGradient>
<linearGradient id="paint3_linear_695_3033" x1="182" y1="12.0065" x2="182" y2="355.154" gradientUnits="userSpaceOnUse">
<stop stop-color="#FFC205"/>
<stop offset="1" stop-color="#FC0299"/>
</linearGradient>
</defs>
</svg>
