<svg width="132" height="218" viewBox="0 0 132 218" fill="none" xmlns="http://www.w3.org/2000/svg">
<path d="M132 15.5714V202.429C132 210.993 125.012 218 116.471 218H15.5294C6.98823 218 0 210.993 0 202.429V15.5714C0 7.00714 6.98823 0 15.5294 0H33C35.7176 3.50357 40.7647 10.5107 43.4824 14.0143C44.2588 15.1821 45.4235 15.5714 46.5882 15.5714H85.4118C86.5765 15.5714 87.7412 15.1821 88.5176 14.0143C91.2353 10.5107 96.2823 3.50357 99 0H116.471C125.012 0 131.612 7.00714 132 15.5714Z" fill="url(#paint0_linear_757_34)"/>
<defs>
<linearGradient id="paint0_linear_757_34" x1="0.194118" y1="109.171" x2="131.806" y2="109.171" gradientUnits="userSpaceOnUse">
<stop stop-color="#9CFFAC"/>
<stop offset="1" stop-color="#00B59C"/>
</linearGradient>
</defs>
</svg>
