<svg width="50" height="56" viewBox="0 0 50 56" fill="none" xmlns="http://www.w3.org/2000/svg">
<path d="M41 43H0V45H23.8H36H38H40.9H41C42.1 45 43 45.9 43 47C43 48.1 42.1 49 41 49H40.9H38H36V51V53V53.1C36 53.6 35.5 54 35 54H3C2.4 54 2 53.6 2 53V51V49H0V51V53C0 54.7 1.3 56 3 56H35C36.7 56 38 54.7 38 53V51H41C43.2 51 45 49.2 45 47C45 44.8 43.2 43 41 43Z" fill="url(#paint0_linear_761_7)"/>
<path d="M38 31H36V41H38V31Z" fill="url(#paint1_linear_761_7)"/>
<path d="M38 4V3C38 1.3 36.7 0 35 0H3C1.3 0 0 1.3 0 3V41.1H2V3C2 2.4 2.4 2 3 2H35C35.6 2 36 2.4 36 3V4C29.4 4.5 24.3 9.8 24 16.4V17C24 20.6 25.5 24 28.1 26.5C33.3 31.4 41.6 31.2 46.5 26C48.8 23.6 50 20.4 50 17.1V16.6C50 16.5 50 16.5 50 16.5C49.7 9.8 44.5 4.5 38 4ZM37 28.4C30.7 28.4 25.6 23.3 25.6 17C25.6 10.7 30.7 5.6 37 5.6C43.3 5.6 48.4 10.7 48.4 17C48.4 23.3 43.3 28.4 37 28.4Z" fill="url(#paint2_linear_761_7)"/>
<defs>
<linearGradient id="paint0_linear_761_7" x1="9.8733" y1="62.6818" x2="28.7793" y2="37.2325" gradientUnits="userSpaceOnUse">
<stop stop-color="#F2551C"/>
<stop offset="1" stop-color="#FFD432"/>
</linearGradient>
<linearGradient id="paint1_linear_761_7" x1="34.145" y1="32.1569" x2="39.2018" y2="38.9638" gradientUnits="userSpaceOnUse">
<stop stop-color="#F2551C"/>
<stop offset="1" stop-color="#FFD432"/>
</linearGradient>
<linearGradient id="paint2_linear_761_7" x1="3.4035" y1="-2.1767" x2="29.4653" y2="32.905" gradientUnits="userSpaceOnUse">
<stop stop-color="#F2551C"/>
<stop offset="1" stop-color="#FFD432"/>
</linearGradient>
</defs>
</svg>
