<svg width="154" height="172" viewBox="0 0 154 172" fill="none" xmlns="http://www.w3.org/2000/svg">
<path d="M132.497 23.9231L136.791 19.6292C130.964 15.3353 123.909 12.575 116.548 12.2682V9.20119C116.548 3.98718 112.561 0 107.347 0H9.20119C3.98718 0 0 3.98718 0 9.20119V126.056H6.13413V9.20119C6.13413 7.36095 7.36095 6.13412 9.20119 6.13412H107.347C109.187 6.13412 110.414 7.36095 110.414 9.20119V12.2682C103.053 12.8817 95.999 15.3353 90.1716 19.6292L94.4655 23.9231C99.9862 20.2426 106.427 18.0956 113.481 18.0956C120.536 18.0956 127.283 20.2426 132.497 23.9231Z" fill="#1664CF"/>
<path d="M110.414 162.248C110.414 164.088 109.187 165.315 107.347 165.315H9.20119C7.36095 165.315 6.13413 164.088 6.13413 162.248V157.034H0V162.248C0 167.462 3.98718 171.449 9.20119 171.449H107.347C112.561 171.449 116.548 167.462 116.548 162.248V157.034H110.414V162.248Z" fill="#1664CF"/>
<path d="M116.548 94.7722H110.414V125.443H116.548V94.7722Z" fill="#1664CF"/>
<path d="M80.0506 50.2998H73.9165V51.8333C73.9165 60.1144 76.6769 68.3955 81.5842 75.143L85.878 70.8491C82.1976 65.3284 80.0506 58.8876 80.0506 51.8333C79.7439 51.2199 80.0506 50.6065 80.0506 50.2998Z" fill="#1664CF"/>
<path d="M152.74 44.1657C151.206 36.1914 147.219 29.1371 141.698 23.6164L137.405 27.9103C143.539 34.0444 147.526 42.6322 147.526 51.8334C147.526 58.8876 145.379 65.3285 141.698 70.8492L145.992 75.1431C150.9 68.3955 153.66 60.1145 153.66 51.8334V50.2999C153.353 48.1529 153.047 46.006 152.74 44.1657Z" fill="#1664CF"/>
<path d="M89.8651 27.9103L85.5712 23.6164C79.7438 29.1371 76.0633 36.4981 74.5298 44.1657H80.9706C82.1975 37.7249 85.5712 32.2042 89.8651 27.9103Z" fill="#1664CF"/>
<path d="M113.481 85.571C103.974 85.571 95.6924 81.8905 89.5583 75.4497L85.2644 79.7436C92.0119 86.4911 100.906 90.785 110.414 91.7051H116.548C126.056 91.0917 134.951 86.7978 141.698 80.0503L137.404 75.7564C131.577 81.5838 122.989 85.571 113.481 85.571Z" fill="#1664CF"/>
</svg>
