<svg width="138" height="180" viewBox="0 0 138 180" fill="none" xmlns="http://www.w3.org/2000/svg">
<path d="M129.176 180H8.7833C3.9627 180 0 176.09 0 171.244V8.75566C0 3.95023 3.9627 0 8.7833 0H129.217C134.078 0 138 3.95023 138 8.75566V171.244C137.959 176.09 134.037 180 129.176 180ZM8.7833 4.0724C6.20959 4.0724 4.08526 6.19005 4.08526 8.75566V171.244C4.08526 173.81 6.20959 175.928 8.7833 175.928H129.217C131.79 175.928 133.915 173.81 133.915 171.244V8.75566C133.915 6.19005 131.79 4.0724 129.217 4.0724H8.7833Z" fill="url(#paint0_linear_757_17)"/>
<defs>
<linearGradient id="paint0_linear_757_17" x1="-8.0795" y1="13.1985" x2="145.558" y2="167.321" gradientUnits="userSpaceOnUse">
<stop stop-color="#009FFF"/>
<stop offset="1" stop-color="#EC2F4B"/>
</linearGradient>
</defs>
</svg>
