<svg width="154" height="172" viewBox="0 0 154 172" fill="none" xmlns="http://www.w3.org/2000/svg">
<path d="M126.143 132.072H0.214844V138.215H73.3144H110.786H116.928H125.835H126.143C129.521 138.215 132.285 140.979 132.285 144.358C132.285 147.736 129.521 150.501 126.143 150.501H125.835H116.928H110.786V156.644V162.786V163.093C110.786 164.629 109.25 165.858 107.714 165.858H9.42907C7.58623 165.858 6.35766 164.629 6.35766 162.786V156.644V150.501H0.214844V156.644V162.786C0.214844 168.008 4.20768 172.001 9.42907 172.001H107.714C112.936 172.001 116.928 168.008 116.928 162.786V156.644H126.143C132.9 156.644 138.428 151.115 138.428 144.358C138.428 137.601 132.9 132.072 126.143 132.072Z" fill="url(#paint0_linear_1029_32)"/>
<path d="M116.928 95.2168H110.785V125.931H116.928V95.2168Z" fill="url(#paint1_linear_1029_32)"/>
<path d="M116.928 12.2876V9.21618C116.928 3.99478 112.936 0.00195312 107.714 0.00195312H9.42907C4.20768 0.00195312 0.214844 3.99478 0.214844 9.21618V126.237H6.35766V9.21618C6.35766 7.37333 7.58623 6.14477 9.42907 6.14477H107.714C109.557 6.14477 110.786 7.37333 110.786 9.21618V12.2876C90.5143 13.8233 74.8501 30.1018 73.9287 50.3731V52.2159C73.9287 63.273 78.5358 73.7158 86.5214 81.3943C102.493 96.4442 127.985 95.8299 143.035 79.8586C150.1 72.4872 153.785 62.6587 153.785 52.523V50.9873C153.785 50.6802 153.785 50.6802 153.785 50.6802C152.864 30.1018 136.893 13.8233 116.928 12.2876ZM113.857 87.23C94.5071 87.23 78.8429 71.5658 78.8429 52.2159C78.8429 32.866 94.5071 17.2018 113.857 17.2018C133.207 17.2018 148.871 32.866 148.871 52.2159C148.871 71.5658 133.207 87.23 113.857 87.23Z" fill="url(#paint2_linear_1029_32)"/>
<rect x="79" y="17" width="70" height="70" fill="#D9D9D9" fill-opacity="0.5"/>
<rect x="6" y="6" width="105" height="119" fill="#08A742" fill-opacity="0.5"/>
<rect x="6" y="151" width="105" height="15" fill="#00F0FF" fill-opacity="0.5"/>
<rect y="138" width="133" height="12" fill="#A84D4D" fill-opacity="0.5"/>
<defs>
<linearGradient id="paint0_linear_1029_32" x1="30.5398" y1="192.523" x2="88.6078" y2="114.358" gradientUnits="userSpaceOnUse">
<stop stop-color="#F2551C"/>
<stop offset="1" stop-color="#FFD432"/>
</linearGradient>
<linearGradient id="paint1_linear_1029_32" x1="105.088" y1="98.7701" x2="120.619" y2="119.677" gradientUnits="userSpaceOnUse">
<stop stop-color="#F2551C"/>
<stop offset="1" stop-color="#FFD432"/>
</linearGradient>
<linearGradient id="paint2_linear_1029_32" x1="10.6684" y1="-6.68358" x2="90.7148" y2="101.067" gradientUnits="userSpaceOnUse">
<stop stop-color="#F2551C"/>
<stop offset="1" stop-color="#FFD432"/>
</linearGradient>
</defs>
</svg>
